# xmcd
#
# Track frame offsets:
#	183
#	20933
#	37730
#	52188
#	69840
#	90405
#	107620
#	126270
#	144740
#	156290
#	176345
#
# Disc length: 2592 seconds
#
# Revision: 0
# Processed by: cddbd v1.5.2PL0 Copyright (c) Steve Scherf et al.
# Submitted via: audiograbber 1.83.01
#
DISCID=900a1e0b
DTITLE=Bruton, Stephen - What it is
DYEAR=1993
DGENRE=Rock
TTITLE0=This train is gone
TTITLE1=It is what it is
TTITLE2=The face of love
TTITLE3=Too many memories
TTITLE4=Who's fooling who
TTITLE5=To find my love
TTITLE6=Waiting for a long time
TTITLE7=Big top hat
TTITLE8=Trouble on the telephone
TTITLE9=River runs deep
TTITLE10=Getting over you
EXTD=
EXTT0=
EXTT1=
EXTT2=
EXTT3=
EXTT4=
EXTT5=
EXTT6=
EXTT7=
EXTT8=
EXTT9=
EXTT10=
PLAYORDER=
